PathFileType	4	(X/Y/Z)	49_2_rein_65_p1_0-133_filt_butterworth.trc
DataRate	CameraRate	NumFrames	NumMarkers	Units	OrigDataRate	OrigDataStartFrame	OrigNumFrames
59.0	59.0	5	27	m	59.0	49	133
Frame#	Time	RHip			RKnee			RAnkle			RBigToe			RSmallToe			RHeel			LHip			LKnee			LAnkle			LBigToe			LSmallToe			LHeel			Neck			Head			Nose			RShoulder			RElbow			RWrist			RThumb			RIndex			RPinky			LShoulder			LElbow			LWrist			LThumb			LIndex			LPinky			
		X1	Y1	Z1	X2	Y2	Z2	X3	Y3	Z3	X4	Y4	Z4	X5	Y5	Z5	X6	Y6	Z6	X7	Y7	Z7	X8	Y8	Z8	X9	Y9	Z9	X10	Y10	Z10	X11	Y11	Z11	X12	Y12	Z12	X13	Y13	Z13	X14	Y14	Z14	X15	Y15	Z15	X16	Y16	Z16	X17	Y17	Z17	X18	Y18	Z18	X19	Y19	Z19	X20	Y20	Z20	X21	Y21	Z21	X22	Y22	Z22	X23	Y23	Z23	X24	Y24	Z24	X25	Y25	Z25	X26	Y26	Z26	X27	Y27	Z27	
49	0.8305084745762712	0.3785582751070781	0.6827475907544527	0.8882315176829615	0.3409347023601251	0.2097449530184753	0.9272459988056893	0.31637962293123645	-0.2628793260842603	1.020308094744209	0.29554938843667516	-0.25869026766496384	0.7689469001171924	0.3700569014066809	-0.27133778027296224	0.8049647223668985	0.31109870353934904	-0.31571268691635945	1.0752898031025149	0.15770099134005566	0.6903749359156697	0.898730591352862	0.16579942507757447	0.19973958565540345	0.9597706197257934	0.18110069596632733	-0.24951470718618485	1.0361074573052833	0.14204628955494558	-0.2478730954112964	0.7951563546536773	0.09917912480289792	-0.286054361992862	0.8871804797026024	0.20457907709509965	-0.339907344213309	1.114492635033853	0.28498682455971963	1.1841324002417442	0.8363528740428932	0.3130493622153869	1.4309879720729997	0.7286025114493333	0.2985587985263709	1.283434564155915	0.6955558043959662	0.44907998635340596	1.1162504007589955	0.8753932660127623	0.49557634422593866	0.9067982450277771	0.724328695641442	0.6056883514648261	1.0707154753660781	0.6993916597062977	0.6063326124471085	1.1621159578613542	0.7560408110918198	0.6411199588022676	1.1628597510305616	0.7558262585994291	0.6427402864212466	1.1348549830627874	0.7386162482736733	0.12469964371263176	1.1570293091499444	0.893777381176375	-0.03313216620198674	0.9475780014643596	0.9273742599813191	-0.18066534529401784	0.7529672447958905	0.9368116163876339	-0.22982482665360315	0.6663304226765492	0.9424400632966534	-0.2666032906445648	0.6375882611572093	0.96168492004254	-0.26168944323207616	0.6171725362042841	0.9860408739318729	
50	0.847457627118644	0.3779691803259457	0.6827630262010023	0.8895255774343801	0.3406533271454907	0.20910038967923794	0.9270133698109401	0.3166019761230123	-0.26285131182275173	1.0204634992310764	0.29574349344439926	-0.25969012788174145	0.7717596847811624	0.36972804575598783	-0.2707697169136711	0.8041836162788023	0.31187833138814974	-0.3161906230628357	1.0757463926544435	0.15706193590743506	0.6908577831112985	0.9004275644925184	0.16579741653515004	0.19896158936463476	0.9599252328933076	0.18112322186135354	-0.25014469267964684	1.0364448019572772	0.1415813219097307	-0.24647679410308118	0.7944965770052128	0.09921924687811956	-0.28597667059552584	0.8871513724945999	0.20450270660583775	-0.34167869823945174	1.1147265348286073	0.2851814784625137	1.1827985321818015	0.8365523841805146	0.31481120050762496	1.4315030663744905	0.7288084029610067	0.2998791743031913	1.2805479996776474	0.6974172305259982	0.4481829111235679	1.1153660187817867	0.870009791750856	0.4775010708573538	0.9054605427385057	0.7188466022554949	0.5978190925046549	1.0558475608386335	0.6646600716200166	0.6172069523900139	1.140480862062008	0.6973109604197936	0.6558352522033482	1.1349261933746266	0.6997602701509568	0.6540782511855174	1.1029738429236278	0.6819775297769828	0.12498276156812185	1.156203085740368	0.8955326306790978	-0.024343718815638425	0.9468983155280992	0.9283423281834813	-0.17616083372027722	0.7476846327425823	0.9440642190122406	-0.21709452147655625	0.661225072892007	0.9363690548910393	-0.25552206103683944	0.6288746942153964	0.9642671578089312	-0.24963132690808318	0.6096347277769112	0.9862149539573175	
51	0.864406779661017	0.37745411980049337	0.6831153089853517	0.8901757950706516	0.3405867538992652	0.20850628344123798	0.9268656355683547	0.3167832861718209	-0.26271005318910107	1.0204118318167743	0.29637512872880895	-0.2610708022796691	0.774854524034008	0.36999153329791146	-0.2711562416161101	0.805052246956968	0.31273863983413475	-0.31678533534751613	1.0763974821997058	0.15681184383815566	0.6913052703519189	0.901965063971944	0.16584678761936736	0.19833599312489347	0.9600600313681316	0.1812219053565007	-0.25074507411301833	1.0364655208547064	0.14146738517000224	-0.24515297864331748	0.7931063598236369	0.09924750462246673	-0.2860057124236512	0.8870230048597663	0.20442280532824958	-0.3436512862994731	1.115024852303664	0.28594111169396297	1.1811788859427703	0.8377276618622634	0.3166140223865819	1.4320945331690278	0.7288886467558024	0.30155083241316677	1.2774555272548227	0.7004201196342913	0.44827466647887737	1.1153981086162805	0.8654024957950304	0.46306114838537343	0.9039043200845953	0.717760300508044	0.5832182579577255	1.0376225867634188	0.6273932437679333	0.6152664252181224	1.117947936421675	0.6258159404326253	0.6567380671518339	1.1077124920646078	0.6268731635532312	0.6529155653220429	1.0717495497727894	0.606795134338444	0.12525785392760852	1.1552573523770029	0.8977813392707977	-0.01577309987441296	0.9458000693111442	0.9294421154127852	-0.17114874417078974	0.742882673348055	0.9508538567827046	-0.2034192892194302	0.6544832964159163	0.9296946684595204	-0.24233175371801596	0.6206751236262855	0.9585975679065107	-0.23508469015659644	0.6045202120645827	0.9775503411267296	
52	0.8813559322033898	0.37707387739002685	0.683635678319677	0.8902260673273681	0.3407376981355601	0.20789383789276653	0.9271216859752552	0.31695851454795043	-0.2625446912356572	1.0202877371736179	0.29724720918510916	-0.26217682568923933	0.7773914929181099	0.370734586226164	-0.27232336826921777	0.807213956474691	0.313647117680315	-0.31743090810474633	1.077107206749911	0.15695672705361569	0.6917429047933104	0.9032416796325446	0.16591489624558	0.19789145536950603	0.9601921396111351	0.18139053297264632	-0.25122295715894305	1.0361456300825453	0.1416897593650303	-0.24362826671896698	0.791046855092565	0.0993174711009034	-0.2859555915569886	0.8867947947734433	0.20434002856332315	-0.345620328240073	1.1153295863050352	0.2872368799914037	1.1793655761641855	0.8399219519008139	0.31823459222672934	1.4325446422004093	0.7289011695869052	0.30355341062403945	1.274438031184027	0.7040700669085911	0.4494928731048046	1.1160788809417932	0.8618425896528608	0.4530513507368568	0.9024837752887624	0.7191838247380962	0.5602547386184595	1.0174724828117712	0.5900142514036861	0.5948510935486193	1.0947698601224114	0.5497741924712987	0.636369105331694	1.082366389885613	0.545785744020515	0.6315213419996364	1.0427420703336596	0.5236944698761151	0.12569633626021373	1.1543169293171913	0.9006195614296878	-0.00821379821980535	0.9441876929750675	0.9315432038173581	-0.16473992986109104	0.7387517195515875	0.9552369981254294	-0.1890783475123946	0.6459020193962846	0.9241720554783884	-0.2278204450603819	0.6129284957822474	0.9474945928903823	-0.21950721152535863	0.6014514685775967	0.9635544084277474	
53	0.8983050847457628	0.37686500743762735	0.6841153970498595	0.8897908953042709	0.34112837127190615	0.20725276118984015	0.928039165577995	0.31713530728272127	-0.262428819325537	1.0201398641216712	0.29816278875740654	-0.26247140203396424	0.7788171792994307	0.3717133256314382	-0.2739720868950791	0.8099562556767005	0.314550625315722	-0.31812611484885817	1.0778936036540674	0.15748369750618638	0.6921633401092618	0.9042335002841565	0.1659886577966268	0.19766397572028482	0.9603240534075633	0.18162233110476772	-0.25156236401390397	1.0354931926715973	0.14216307913485093	-0.2416061532265137	0.7883688012004907	0.09941729992815987	-0.2856601338156042	0.8864915967275844	0.20426394853232233	-0.3473270002313379	1.1155912196744637	0.2888501301876827	1.1775192849017395	0.8428951193216487	0.31958981037460865	1.4327206455681496	0.728834931926438	0.305693033787626	1.271777909442241	0.7077501623241176	0.45173723944812255	1.1170076363823813	0.8592261858588515	0.448030753981673	0.9017330054396501	0.7206258719223932	0.5281592639999912	0.9977055150773909	0.5550332061227721	0.553838755851592	1.0716865544890832	0.4798743534080601	0.5910322382778392	1.0597213458054573	0.46858250112808564	0.5859379814676896	1.0170768219422441	0.4464696007554415	0.12660011225972517	1.1535764955198105	0.9036569353732316	-0.002302983878551337	0.9422218374802727	0.9346589595427963	-0.15646340071978435	0.7351224478155947	0.955332877830726	-0.1745933661511713	0.6360802966970656	0.9211438824648676	-0.2127636359304298	0.6056132182771453	0.934767218172516	-0.20436051808729278	0.599392633329261	0.9483765315607741	
